# xmcd
#
# Track frame offsets:
#	150
#	11427
#	33515
#	49410
#	62697
#	77822
#	88725
#	102467
#	107572
#	119650
#	136677
#	149152
#	171172
#	187552
#	207817
#	225992
#	240400
#	262495
#
# Disc length: 3577 seconds
#
# Revision: 1
# Processed by: cddbd v1.5.2PL0 Copyright (c) Steve Scherf et al.
# Submitted via: audiograbber 1.83.01
#
DISCID=f90df712
DTITLE=Various Artist - Northern Steel
DYEAR=1900
DGENRE=Country
TTITLE0=Lonesome 77203
TTITLE1=Honky Tonk Night Time Man
TTITLE2=Desperado
TTITLE3=All My Loving
TTITLE4=Then You Can Tell Me Goodbye
TTITLE5=Raisin' The Dickens
TTITLE6=Kindly Keep It Country
TTITLE7=Chasing Paul
TTITLE8=I'd Rather Have You Fat and Happy
TTITLE9=Cry
TTITLE10=One Smokey Rose
TTITLE11=Moonglow
TTITLE12=Silver Haired Daddy of Mine
TTITLE13=PC Blues
TTITLE14=Hot Burrito #1
TTITLE15=Freddie the Freeloader
TTITLE16=Ghostbusters
TTITLE17=Canadian Farewell
EXTD=
EXTT0=
EXTT1=
EXTT2=
EXTT3=
EXTT4=
EXTT5=
EXTT6=
EXTT7=
EXTT8=
EXTT9=
EXTT10=
EXTT11=
EXTT12=
EXTT13=
EXTT14=
EXTT15=
EXTT16=
EXTT17=
PLAYORDER=
